<?xml version="1.0" encoding="utf-8"?>
<!-- Generator: Adobe Illustrator 23.0.0, SVG Export Plug-In . SVG Version: 6.00 Build 0)  -->
<svg version="1.1" id="Radial_Menu_Share" xmlns="http://www.w3.org/2000/svg" xmlns:xlink="http://www.w3.org/1999/xlink" x="0px"
	 y="0px" viewBox="0 0 281.7 282.2" enable-background="new 0 0 281.7 282.2" xml:space="preserve">
<path id="arc-light" class="arc-hold-active" opacity="0.1" fill="#FFFFFF" enable-background="new    " d="M0,282.2h102.8c7.1-11.4,11.2-24.8,11.2-39.2
	c0-41.2-33.4-74.6-74.6-74.6c-14.5,0-28,4.1-39.4,11.2L0,282.2z"/>
<g id="share-icon">
	<path fill="#FFFFFF" d="M67.1,237.2c-1.9,1.9-5.1,1.9-7,0c-1.9-1.9-1.9-5.1,0-7c1.9-1.9,5.1-1.9,7,0C69,232.1,69,235.2,67.1,237.2z
		"/>
	<path fill="#FFFFFF" d="M67.9,229.3c2.4,2.4,2.4,6.3,0,8.6c-2.4,2.4-6.3,2.4-8.6,0c-2.4-2.4-2.4-6.3,0-8.6
		C61.6,227,65.5,227,67.9,229.3z M66.3,231c-1.5-1.5-3.9-1.5-5.4,0c-1.5,1.5-1.5,3.9,0,5.4c1.5,1.5,3.9,1.5,5.4,0
		C67.8,234.9,67.8,232.5,66.3,231z"/>
	<path fill="#FFFFFF" d="M49.8,219.9c-1.9,1.9-5.1,1.9-7,0c-1.9-1.9-1.9-5.1,0-7c1.9-1.9,5.1-1.9,7,0
		C51.7,214.8,51.7,217.9,49.8,219.9z"/>
	<path fill="#FFFFFF" d="M50.6,212c2.4,2.4,2.4,6.3,0,8.6s-6.3,2.4-8.6,0c-2.4-2.4-2.4-6.3,0-8.6C44.4,209.7,48.2,209.7,50.6,212z
		 M49,213.7c-1.5-1.5-3.9-1.5-5.4,0c-1.5,1.5-1.5,3.9,0,5.4c1.5,1.5,3.9,1.5,5.4,0C50.5,217.6,50.5,215.2,49,213.7z"/>
	<path fill="#FFFFFF" d="M43.3,243.7c-1.9,1.9-5.1,1.9-7,0c-1.9-1.9-1.9-5.1,0-7c1.9-1.9,5.1-1.9,7,0
		C45.3,238.6,45.3,241.7,43.3,243.7z"/>
	<path fill="#FFFFFF" d="M44.1,235.8c2.4,2.4,2.4,6.3,0,8.6c-2.4,2.4-6.3,2.4-8.6,0c-2.4-2.4-2.4-6.3,0-8.6S41.7,233.4,44.1,235.8z
		 M42.5,237.4c-1.5-1.5-3.9-1.5-5.4,0c-1.5,1.5-1.5,3.9,0,5.4c1.5,1.5,3.9,1.5,5.4,0S44,238.9,42.5,237.4z"/>
	<path fill="#FFFFFF" d="M43.5,237.7l15.8-4.3c0.8-0.2,1.7,0.3,1.9,1.1c0.2,0.8-0.3,1.7-1.1,1.9l-15.7,4.3c-0.8,0.2-1.7-0.3-1.9-1.1
		c-0.1-0.6,0-1.1,0.4-1.5C43.1,237.9,43.3,237.8,43.5,237.7z"/>
	<path fill="#FFFFFF" d="M45.5,218.8c0.8,0.2,1.3,1.1,1.1,1.9l-4.3,15.8c-0.2,0.8-1.1,1.3-1.9,1.1c-0.8-0.2-1.3-1.1-1.1-1.9
		l4.3-15.8c0.1-0.3,0.2-0.5,0.4-0.7C44.4,218.8,44.9,218.6,45.5,218.8z"/>
</g>
<g id="arc_base">
	<circle opacity="0.8" fill="#FFFFFF" enable-background="new    " cx="105.6" cy="279.7" r="2.1"/>
	<circle opacity="0.8" fill="#FFFFFF" enable-background="new    " cx="2.5" cy="176.7" r="2.1"/>
	<path opacity="0.8" fill="#FFFFFF" enable-background="new    " d="M51.6,165.1l2.7,5.9l0.4,0.1c14,3,26.6,9.8,36.6,19.8
		s16.8,22.6,19.8,36.6l0.1,0.4l5.9,2.7l-0.3-1.7c-2.8-16-10.3-30.4-21.7-41.8c-11.3-11.4-25.8-18.9-41.8-21.7l0,0L51.6,165.1z"/>
	<path fill="#FFFFFF" d="M2.9,175l0.7,0.7c0.1,0.2,0.2,0.4,0.3,0.6l0.2,0.7l0.7-0.4c15-7.7,32.3-10.2,49-6.9l-1.2-2.6
		c-16.7-2.9-34-0.3-48.9,7.5L2.9,175z"/>
	<path fill="#FFFFFF" d="M115.2,229.7l-2.6-1.2c3.3,16.7,0.9,34.1-6.9,49l-0.4,0.7l0.7,0.2c0.2,0,0.4,0.2,0.6,0.3v0.1l0.6,0.6
		l0.4-0.8C115.4,263.7,118,246.4,115.2,229.7z"/>
</g>
<g id="arc-expand-group">
	<path id="arc-expand" fill="#FFFFFF" d="M0,101.5l-0.1,3.3c34.2-17.3,75.2-18.8,110.6-3.9c15.7,6.7,29.7,16.1,41.8,28.2
		s21.6,26.1,28.2,41.8c15,35.7,13.4,77-4.3,111.3h3.4c17.1-34.3,18.8-75.2,4.3-110.9l36.6-9.8l50-13.4
		c11.8,45.5,6.2,93.2-14.4,134.1h3.5c5.8-11.8,10.5-24.2,13.8-37.1c8.3-32,8.3-65.7,0-97.7l0,0L273,146l-0.4-1.5l0,0
		c-8.9-32.3-26.1-61.9-49.9-85.7c-23.8-23.9-53.4-41.1-85.6-50l0,0l-1.5-0.4L134.2,8l0,0c-32-8.2-65.7-8.3-97.7,0
		c-12.6,3.2-24.8,7.7-36.4,13.4v3.5c40.7-20.2,88.1-25.7,133.3-14l-16.1,60.3l-7.1,26.3C94,91,76.8,87.7,59.6,87.7
		C39,87.7,18.6,92.4,0,101.5C0,101.5-0.1,101.5,0,101.5z M112.9,98.7l23.3-87c31.8,8.8,61,25.8,84.4,49.2
		c23.5,23.5,40.4,52.6,49.2,84.4l-87,23.3c-6.7-15.6-16.3-29.6-28.3-41.6C142.5,114.9,128.5,105.4,112.9,98.7z"/>
	<path id="arc-3" class="arc-icon share-copy" fill="#FFFFFF" fill-opacity="0" d="M271.7,146.4l-89.7,24c15.7,37.4,13.7,80.5-6.3,116.3l46,46
		C272.1,282.2,288.8,210.7,271.7,146.4z"/>
	<path id="arc-2" class="arc-icon share-fb" fill="#FFFFFF" fill-opacity="0" d="M135.2,9.8l-24,89.7c15.4,6.5,29.8,16,42.3,28.5s22,26.9,28.5,42.3l89.7-24
		c-8.5-31.7-25.1-61.6-50-86.5C196.8,35,166.9,18.3,135.2,9.8z"/>
	<path id="arc-1" class="arc-icon share-tt" fill="#FFFFFF" fill-opacity="0" d="M-51.1,59.9l46,46c35.8-19.9,78.9-22,116.3-6.3l24-89.7
		C70.8-7.3-0.7,9.3-51.1,59.9z"/>
	<path id="FB_icon" class="no-event" fill-rule="evenodd" clip-rule="evenodd" fill="#FFFFFF" d="M193.3,97l6.1-4.7l-5.3-5.3l3.4-3.4
		c1.6-1.6,3.1-2.2,5.3,0l2.8,2.8l4.8-4.8c-0.4-0.6-2-2.4-3.9-4.4c-4.1-4.1-9.4-4.4-14,0.2l-4,4l-4.6-4.6l-5.4,5.4l4.6,4.6
		l-13.8,13.8l5.6,5.6l13.8-13.9L193.3,97z"/>
	<g id="link-icon" class="no-event">
		<g>
			<g>
				<path fill="#FFFFFF" stroke="#FFFFFF" stroke-miterlimit="10" d="M258.9,229.4c0.6-2.2,0.2-4.6-0.9-6.5l0,0
					c-1.2-2-3.1-3.4-5.3-4l-15.2-3.9c-3-0.8-6.2,0.2-8.4,2.4c-0.6,0.7-0.6,1.7,0.1,2.3c0.7,0.6,1.7,0.6,2.3-0.1
					c1.3-1.4,3.3-2,5.2-1.5l15.2,3.9c2.8,0.7,4.6,3.6,3.8,6.5c-0.7,2.8-3.6,4.6-6.5,3.8l-15.2-3.9c-1-0.3-1.9-0.8-2.6-1.6
					c-0.6-0.7-1.7-0.7-2.3-0.1c-0.6,0.5-0.7,1.4-0.3,2.1c0.1,0.1,0.1,0.2,0.2,0.3c1.1,1.2,2.6,2.1,4.2,2.5l15.2,3.9
					C253,236.8,257.7,234,258.9,229.4z"/>
			</g>
		</g>
		<g>
			<g>
				<path fill="#FFFFFF" stroke="#FFFFFF" stroke-miterlimit="10" d="M239.6,222.9c0.6-0.7,0.6-1.7-0.1-2.3
					c-0.7-0.6-1.7-0.6-2.3,0.1c-1.3,1.4-3.3,2-5.2,1.5l-15.2-3.9c-2.8-0.7-4.6-3.6-3.8-6.5c0.7-2.8,3.6-4.6,6.5-3.8l15.2,3.9
					c1,0.3,1.9,0.8,2.6,1.5c0.6,0.7,1.6,0.7,2.3,0.1c0.7-0.6,0.7-1.6,0.1-2.3c0,0,0,0,0,0c-1.1-1.2-2.6-2.1-4.2-2.5l-15.2-3.9
					c-4.6-1.1-9.3,1.7-10.4,6.3c-1.1,4.6,1.6,9.2,6.2,10.4l15.2,3.9C234.3,226.1,237.5,225.1,239.6,222.9z"/>
			</g>
		</g>
	</g>
	<g id="twitter-icon" class="no-event">
		<g>
			<path fill="#FFFFFF" d="M72.8,35.6c-1.3,0.7-2.8,1.3-4.3,1.6c1.5-1.1,2.6-2.7,3-4.5c-1.4,1-3,1.8-4.7,2.3
				c-1.5-1.4-3.6-2.1-5.8-1.9c-4.2,0.4-7.3,4.1-6.9,8.2c0.1,0.6,0.2,1.2,0.3,1.7c-6.3,0.2-12.2-2.3-16.3-6.6
				c-0.6,1.2-0.8,2.5-0.7,3.9c0.2,2.6,1.8,4.8,3.9,6c-1.2,0.1-2.4-0.2-3.5-0.6c0,0,0,0.1,0,0.1c0.3,3.7,3.2,6.5,6.7,6.9
				c-0.6,0.2-1.3,0.4-2,0.4c-0.5,0-1,0.1-1.4,0c1.2,2.9,4.2,4.9,7.6,4.7c-2.4,2.2-5.6,3.7-9.1,4.1c-0.6,0.1-1.2,0.1-1.8,0.1
				c3.5,1.9,7.6,2.8,11.9,2.4c14-1.2,20.6-13.4,19.7-23.5c0-0.3-0.1-0.7-0.1-1C70.7,38.6,71.9,37.2,72.8,35.6z"/>
		</g>
	</g>
</g>
</svg>
