<?xml version="1.0" encoding="utf-8"?>
<!-- Generator: Adobe Illustrator 23.0.0, SVG Export Plug-In . SVG Version: 6.00 Build 0)  -->
<svg version="1.1" id="Radial_Menu" xmlns="http://www.w3.org/2000/svg" xmlns:xlink="http://www.w3.org/1999/xlink" x="0px"
	 y="0px" viewBox="0 0 281.7 282.2" style="enable-background:new 0 0 281.7 282.2;" xml:space="preserve">
<style type="text/css">
	.st0{opacity:0.1;fill:#FFFFFF;enable-background:new    ;}
	.st1{fill:#FFFFFF;}
	.st2{opacity:0.8;fill:#FFFFFF;enable-background:new    ;}
	.st3{opacity:0;}
	.st4{fill:#FFFFFF;fill-opacity:0;}
	.st5{fill-rule:evenodd;clip-rule:evenodd;fill:#FFFFFF;}
</style>
<path id="arc-light" class="st0 arc-hold-active" d="M281.7,179.6c-11.4-7.1-24.9-11.2-39.4-11.2c-41.2,0-74.6,33.4-74.6,74.6
	c0,14.4,4.1,27.8,11.2,39.2h102.8V179.6z"/>
<polygon id="contact-icon" class="st1 arc-hold-active" points="225.7,213.1 225.7,224.1 214.6,224.1 212,226.7 212,227.7 212,230.3 214.6,232.9 
	225.7,232.9 225.7,243.9 228.2,246.5 229.3,246.5 231.9,246.5 234.5,243.9 234.5,232.9 245.5,232.9 248,230.3 248,227.7 248,226.7 
	245.5,224.1 234.5,224.1 234.5,213.1 231.9,210.5 229.3,210.5 228.2,210.5 "/>
<g id="arc_base">
	<circle class="st2" cx="176.1" cy="279.7" r="2.1"/>
	<circle class="st2" cx="279.2" cy="176.7" r="2.1"/>
	<path class="st2" d="M228.4,165.4L228.4,165.4c-16,2.8-30.5,10.3-41.8,21.7c-11.4,11.4-18.9,25.8-21.7,41.8l-0.3,1.7l5.9-2.7
		l0.1-0.4c3-14,9.8-26.6,19.8-36.6s22.6-16.8,36.6-19.8l0.4-0.1l2.7-5.9L228.4,165.4z"/>
	<path class="st1" d="M278,174.6c-14.9-7.8-32.2-10.4-48.9-7.5l-1.2,2.6c16.7-3.3,34-0.8,49,6.9l0.7,0.4l0.2-0.7
		c0.1-0.2,0.2-0.4,0.3-0.6l0.7-0.7L278,174.6z"/>
	<path class="st1" d="M174.1,278.6l0.4,0.8l0.6-0.6v-0.1c0.2-0.1,0.4-0.3,0.6-0.3l0.7-0.2l-0.4-0.7c-7.8-14.9-10.2-32.3-6.9-49
		l-2.6,1.2C163.7,246.4,166.3,263.7,174.1,278.6z"/>
</g>
<g id="arc-expand-group" class="st3">
	<path id="arc-expand" class="st1" d="M281.7,101.5c-18.6-9.1-39-13.8-59.6-13.8c-17.2,0-34.4,3.3-50.6,9.8l-7.1-26.3l-16.1-60.3
		c45.2-11.7,92.6-6.2,133.3,14v-3.5C270,15.7,257.8,11.2,245.2,8c-32-8.3-65.7-8.2-97.7,0l0,0l-1.4,0.4l-1.5,0.4l0,0
		c-32.2,8.9-61.8,26.1-85.6,50c-23.8,23.8-41,53.4-49.9,85.7l0,0L8.7,146l-0.4,1.4l0,0c-8.3,32-8.3,65.7,0,97.7
		c3.3,12.9,8,25.3,13.8,37.1h3.5C5,241.3-0.6,193.6,11.2,148.1l50,13.4l36.6,9.8C83.3,207,85,247.9,102.1,282.2h3.4
		c-17.7-34.3-19.3-75.6-4.3-111.3c6.6-15.7,16.1-29.7,28.2-41.8s26.1-21.5,41.8-28.2c35.4-14.9,76.4-13.4,110.6,3.9L281.7,101.5
		C281.8,101.5,281.7,101.5,281.7,101.5z M127.2,127c-12,12-21.6,26-28.3,41.6l-87-23.3c8.8-31.8,25.7-60.9,49.2-84.4
		c23.4-23.4,52.6-40.4,84.4-49.2l23.3,87C153.2,105.4,139.2,114.9,127.2,127z"/>
	<path id="arc-3" class="st4 arc-icon IG" d="M60,332.7l46-46c-20-35.8-22-78.9-6.3-116.3l-89.7-24C-7.1,210.7,9.6,282.2,60,332.7z"/>
	<path id="arc-2" class="st4 arc-icon FB" d="M60,59.8c-24.9,24.9-41.5,54.8-50,86.5l89.7,24c6.5-15.4,16-29.8,28.5-42.3s26.9-22,42.3-28.5
		l-24-89.7C114.8,18.3,84.9,35,60,59.8z"/>
	<path id="arc-1" class="st4 arc-icon BE" d="M146.5,9.9l24,89.7c37.4-15.7,80.5-13.6,116.3,6.3l46-46C282.4,9.3,210.9-7.3,146.5,9.9z"/>
	<path id="FB_icon" class="st5 no-event" d="M98.7,86.7L94,80.6l-5.3,5.3l-3.4-3.4c-1.6-1.6-2.2-3.1,0-5.3l2.8-2.8l-4.8-4.8
		c-0.6,0.4-2.4,2-4.4,3.9c-4.1,4.1-4.4,9.4,0.2,14l4,4l-4.6,4.6l5.4,5.4l4.6-4.6l13.8,13.8l5.6-5.6L94,91.3L98.7,86.7z"/>
	<g id="BE_icon" class="no-event">
		<path class="st1" d="M199,60.9c1-10.4,2-20.9,3-31.3c0.1,0,0.1,0,0.2,0c5.3,0.5,10.6,1,15.8,1.5c0.6,0.1,1.1,0.1,1.7,0.2
			c0.9,0.2,1.7,0.5,2.5,0.9c2.3,1.2,3.6,3,4.1,5.5c0.2,1.3,0.2,2.6-0.1,3.8c-0.2,0.7-0.5,1.4-0.9,2.1c-0.9,1.3-2.2,2-3.8,2.2
			c-0.1,0-0.2,0-0.3,0c0.3,0.1,0.6,0.1,0.8,0.2c1.4,0.3,2.5,1.2,3.3,2.4c0.6,1.1,0.9,2.4,1,3.6c0,0.8,0,1.5-0.1,2.3
			s-0.3,1.6-0.5,2.4c-0.8,2.2-2.2,3.9-4.4,4.8c-1.8,0.8-3.8,1.1-5.8,0.9c-5.4-0.5-10.9-1-16.3-1.6C199.1,60.9,199.1,60.9,199,60.9z
			 M206.8,56.1c0.1,0,0.1,0,0.1,0c2.8,0.3,5.6,0.5,8.4,0.8c0.3,0,0.7,0,1.1,0c0.6,0,1.2-0.2,1.8-0.6c0.7-0.5,1-1.1,1.3-1.9
			c0.2-0.7,0.3-1.3,0.3-2c0-0.6-0.1-1.2-0.3-1.7c-0.5-1.3-1.4-2-2.8-2.1c-2.9-0.3-5.9-0.6-8.8-0.9h-0.1
			C207.3,50.5,207,53.3,206.8,56.1z M208,42.9h0.1c2.8,0.3,5.6,0.5,8.4,0.8c0.3,0,0.5,0,0.8,0c0.5,0,1-0.2,1.3-0.6
			c0.3-0.3,0.5-0.7,0.7-1.1c0.3-0.8,0.4-1.7,0.4-2.6c0-0.6-0.1-1.1-0.4-1.6c-0.4-0.6-0.9-1-1.6-1.1c-3-0.3-5.9-0.6-8.9-0.9h-0.1
			C208.5,38.2,208.3,40.5,208,42.9z"/>
		<path class="st1" d="M238.3,65.4c-0.1,0-0.2,0-0.3,0c-1-0.1-2-0.3-2.9-0.6c-1.4-0.4-2.7-1.1-3.8-2c-1.4-1.2-2.4-2.6-3-4.4
			c-0.4-1.3-0.7-2.6-0.7-3.9c-0.1-2.4,0.5-4.7,1.5-6.9c0.6-1.3,1.5-2.5,2.6-3.5c1.4-1.2,3-2,4.8-2.4c1-0.2,2.1-0.3,3.1-0.3
			s2,0.1,2.9,0.3c1.5,0.3,3,0.9,4.3,1.8c1.2,0.9,2.2,2.1,2.8,3.5c0.6,1.3,0.9,2.7,1.1,4.1c0.1,1.4,0.1,2.8-0.1,4.2
			c0,0.3-0.1,0.5-0.1,0.8c-5.4-0.5-10.8-1-16.2-1.6c0,0.3,0,0.5,0,0.7c0,0.6,0.1,1.2,0.2,1.8c0.4,1.4,1.3,2.3,2.6,2.9
			c0.8,0.4,1.6,0.5,2.5,0.6c0.7,0,1.4,0,2.1-0.1c0.8-0.1,1.5-0.4,2.1-1c0.5-0.5,0.8-1.1,0.9-1.8l0,0c1.8,0.2,3.7,0.4,5.5,0.5
			c0,0.2,0,0.5-0.1,0.7c-0.1,0.8-0.4,1.7-0.8,2.4c-0.7,1.4-1.7,2.4-3.1,3.1c-1.1,0.6-2.2,0.9-3.4,1.1c-1,0.2-2.1,0.2-3.1,0.1h-0.1
			C239.1,65.5,238.7,65.4,238.3,65.4z M244.8,51.3C244.8,51.2,244.8,51.2,244.8,51.3c0-0.8,0-1.5-0.2-2.2c-0.4-1.3-1.2-2.2-2.5-2.7
			c-0.8-0.3-1.7-0.4-2.5-0.4c-1.1,0-2.1,0.4-3,1.1c-0.9,0.7-1.4,1.6-1.8,2.6c-0.1,0.2-0.1,0.4-0.2,0.6
			C237.9,50.6,241.4,50.9,244.8,51.3z"/>
		<path class="st1" d="M247.6,35.9c-0.1,1.3-0.2,2.6-0.4,3.8c-4.3-0.4-8.6-0.8-12.9-1.2c0.1-1.3,0.2-2.6,0.4-3.8
			C239,35,243.3,35.4,247.6,35.9z"/>
	</g>
	<g id="IG_icon" class="no-event">
		<path class="st1" d="M28,212.3l2,19.6c0.7,6.7,6.7,11.5,13.3,10.8l19.6-2c6.7-0.7,11.5-6.7,10.8-13.3l-2-19.6
			C71,201.1,65,196.3,58.4,197l-19.6,2C32.2,199.7,27.3,205.7,28,212.3z M58.9,200.9c4.5-0.5,8.6,2.8,9,7.4l2,19.6
			c0.5,4.5-2.8,8.6-7.4,9l-19.6,2c-4.5,0.5-8.6-2.8-9-7.4l-2-19.6c-0.5-4.5,2.8-8.6,7.4-9L58.9,200.9L58.9,200.9z"/>
		<path class="st1" d="M39.6,221.1c0.6,6.2,6.2,10.8,12.4,10.1c6.2-0.6,10.8-6.2,10.1-12.4c-0.6-6.2-6.2-10.8-12.4-10.1
			C43.5,209.2,39,214.8,39.6,221.1z M58.3,219.1c0.4,4.1-2.6,7.7-6.6,8.2c-4.1,0.4-7.7-2.6-8.2-6.6c-0.4-4.1,2.6-7.7,6.6-8.2
			C54.2,212.1,57.9,215,58.3,219.1z"/>
		<path class="st1" d="M35.1,209.6c0.1,0.7,0.5,1.5,1,1.9c0.6,0.5,1.4,0.7,2.1,0.6c0.7-0.1,1.5-0.5,1.9-1c0.5-0.6,0.7-1.4,0.6-2.1
			c-0.1-0.8-0.5-1.5-1-1.9c-0.6-0.5-1.4-0.7-2.1-0.6c-0.8,0.1-1.5,0.5-1.9,1C35.3,208.1,35,208.9,35.1,209.6z"/>
	</g>
</g>
</svg>
